<svg xmlns="http://www.w3.org/2000/svg" version="1.1" xmlns:xlink="http://www.w3.org/1999/xlink" xmlns:svgjs="http://svgjs.dev/svgjs" width="2000" height="2000" viewBox="0 0 2000 2000"><g transform="matrix(1,0,0,1,-0.28443113772425477,-0.28443113772459583)"><svg viewBox="0 0 334 334" data-background-color="#080a1a" preserveAspectRatio="xMidYMid meet" height="2000" width="2000" xmlns="http://www.w3.org/2000/svg" xmlns:xlink="http://www.w3.org/1999/xlink"><g id="tight-bounds" transform="matrix(1,0,0,1,0.04749999999998522,0.04750000000001364)"><svg viewBox="0 0 333.90454557049503 333.90454557049503" height="333.90454557049503" width="333.90454557049503"><g><svg></svg></g><g><svg viewBox="0 0 333.90454557049503 333.90454557049503" height="333.90454557049503" width="333.90454557049503"><g><path d="M0 166.952c0-92.205 74.747-166.952 166.952-166.952 92.205 0 166.952 74.747 166.953 166.952 0 92.205-74.747 166.952-166.953 166.953-92.205 0-166.952-74.747-166.952-166.953zM166.952 316.63c82.665 0 149.677-67.013 149.678-149.678 0-82.665-67.013-149.677-149.678-149.677-82.665 0-149.677 67.013-149.677 149.677 0 82.665 67.013 149.677 149.677 149.678z" data-fill-palette-color="tertiary" fill="#925eff" stroke="transparent"></path><ellipse rx="160.27418187383762" ry="160.27418187383762" cx="166.95227278524752" cy="166.95227278524752" fill="#925eff" stroke="transparent" stroke-width="0" fill-opacity="1" data-fill-palette-color="tertiary"></ellipse></g><g transform="matrix(1,0,0,1,87.28137563849806,71.17305217166896)"><svg viewBox="0 0 159.3417942934989 191.55844122715712" height="191.55844122715712" width="159.3417942934989"><g><svg viewBox="0 0 159.3417942934989 191.55844122715712" height="191.55844122715712" width="159.3417942934989"><g><svg viewBox="0 0 159.3417942934989 191.55844122715712" height="191.55844122715712" width="159.3417942934989"><g><svg viewBox="0 0 159.3417942934989 191.55844122715712" height="191.55844122715712" width="159.3417942934989"><g id="textblocktransform"><svg viewBox="0 0 159.3417942934989 191.55844122715712" height="191.55844122715712" width="159.3417942934989" id="textblock"><g><svg viewBox="0 0 159.3417942934989 191.55844122715712" height="191.55844122715712" width="159.3417942934989"><g transform="matrix(1,0,0,1,0,0)"><svg width="159.3417942934989" viewBox="2.35 -32.35 27.45 33" height="191.55844122715712" data-palette-color="#ffffff"><path d="M13.75 0.65L13.75 0.65Q8.6 0.65 5.53-2.38 2.45-5.4 2.45-11.3L2.45-11.3Q2.45-13.95 3.18-16.8 3.9-19.65 5.6-22.45L5.6-22.45Q4.65-21.6 3.8-21.6L3.8-21.6Q2.35-21.6 2.35-23.9L2.35-23.9Q2.35-25.55 3.05-26.55 3.75-27.55 4.4-28.15L4.4-28.15Q5.5-29.1 7.2-30.08 8.9-31.05 11.2-31.7 13.5-32.35 16.35-32.35L16.35-32.35Q23.05-32.35 26.43-28.58 29.8-24.8 29.8-18.1L29.8-18.1Q29.8-14.15 28.65-10.75 27.5-7.35 25.38-4.8 23.25-2.25 20.3-0.8 17.35 0.65 13.75 0.65ZM15.5-4.95L15.5-4.95Q18-4.95 20.43-6.1 22.85-7.25 24.43-9.78 26-12.3 26-16.35L26-16.35Q26-20.15 24.55-22.43 23.1-24.7 20.88-25.73 18.65-26.75 16.2-26.75L16.2-26.75Q14.35-26.75 12.88-26.28 11.4-25.8 10.25-25.25L10.25-25.25Q8.95-23.25 7.8-20.38 6.65-17.5 6.65-14.3L6.65-14.3Q6.65-11.1 7.9-9.03 9.15-6.95 11.18-5.95 13.2-4.95 15.5-4.95Z" opacity="1" transform="matrix(1,0,0,1,0,0)" fill="#ffffff" class="wordmark-text-0" data-fill-palette-color="quaternary" id="text-0"></path></svg></g></svg></g></svg></g></svg></g></svg></g></svg></g></svg></g></svg></g><defs></defs></svg><rect width="333.90454557049503" height="333.90454557049503" fill="none" stroke="none" visibility="hidden"></rect></g></svg></g></svg>